<?xml version="1.0" encoding="UTF-8"?>
<svg width="48px" height="48px" viewBox="0 0 48 48" version="1.1" xmlns="http://www.w3.org/2000/svg" xmlns:xlink="http://www.w3.org/1999/xlink">
    <title>LocationMarker_C2</title>
    <g id="LocationMarker_C2" stroke="none" stroke-width="1" fill="none" fill-rule="evenodd">
        <g id="Group" transform="translate(9.000000, 7.000000)" fill-rule="nonzero">
            <path d="M15,0 C7.12875,0 0,6.34195455 0,14.1673636 C0,21.9909091 3.75,27.9545455 15,41 C26.25,27.9545455 30,21.9909091 30,14.1673636 C30,6.34195455 22.873125,0 15,0 Z" id="Shape" fill="#005962"></path>
            <g id="C2" transform="translate(6.265625, 8.414062)" fill="#FFFFFF">
                <path d="M5.359375,2.015625 C4.44791667,2.015625 3.7421875,2.35807292 3.2421875,3.04296875 C2.7421875,3.72786458 2.4921875,4.68229167 2.4921875,5.90625 C2.4921875,8.453125 3.44791667,9.7265625 5.359375,9.7265625 C6.16145833,9.7265625 7.1328125,9.52604167 8.2734375,9.125 L8.2734375,11.15625 C7.3359375,11.546875 6.2890625,11.7421875 5.1328125,11.7421875 C3.47135417,11.7421875 2.20052083,11.2382812 1.3203125,10.2304688 C0.440104167,9.22265625 0,7.77604167 0,5.890625 C0,4.703125 0.216145833,3.66276042 0.6484375,2.76953125 C1.08072917,1.87630208 1.70182292,1.19140625 2.51171875,0.71484375 C3.32161458,0.23828125 4.27083333,0 5.359375,0 C6.46875,0 7.58333333,0.268229167 8.703125,0.8046875 L7.921875,2.7734375 C7.49479167,2.5703125 7.06510417,2.39322917 6.6328125,2.2421875 C6.20052083,2.09114583 5.77604167,2.015625 5.359375,2.015625 Z" id="Path"></path>
                <path d="M17.890625,11.5859375 L9.90625,11.5859375 L9.90625,9.90625 L12.7734375,7.0078125 C13.6223958,6.13802083 14.1770833,5.53515625 14.4375,5.19921875 C14.6979167,4.86328125 14.8854167,4.55208333 15,4.265625 C15.1145833,3.97916667 15.171875,3.68229167 15.171875,3.375 C15.171875,2.91666667 15.0455729,2.57552083 14.7929688,2.3515625 C14.5403646,2.12760417 14.203125,2.015625 13.78125,2.015625 C13.3385417,2.015625 12.9088542,2.1171875 12.4921875,2.3203125 C12.0755208,2.5234375 11.640625,2.8125 11.1875,3.1875 L9.875,1.6328125 C10.4375,1.15364583 10.9036458,0.815104167 11.2734375,0.6171875 C11.6432292,0.419270833 12.046875,0.266927083 12.484375,0.16015625 C12.921875,0.0533854167 13.4114583,0 13.953125,0 C14.6666667,0 15.296875,0.130208333 15.84375,0.390625 C16.390625,0.651041667 16.8151042,1.015625 17.1171875,1.484375 C17.4192708,1.953125 17.5703125,2.48958333 17.5703125,3.09375 C17.5703125,3.61979167 17.4778646,4.11328125 17.2929688,4.57421875 C17.1080729,5.03515625 16.8216146,5.5078125 16.4335938,5.9921875 C16.0455729,6.4765625 15.3619792,7.16666667 14.3828125,8.0625 L12.9140625,9.4453125 L12.9140625,9.5546875 L17.890625,9.5546875 L17.890625,11.5859375 Z" id="Path"></path>
            </g>
        </g>
    </g>
</svg>