<?xml version="1.0" encoding="UTF-8"?>
<svg width="48px" height="48px" viewBox="0 0 48 48" version="1.1" xmlns="http://www.w3.org/2000/svg" xmlns:xlink="http://www.w3.org/1999/xlink">
    <title>LocationMarker_C3</title>
    <g id="LocationMarker_C3" stroke="none" stroke-width="1" fill="none" fill-rule="evenodd">
        <g id="Group" transform="translate(9.000000, 7.000000)" fill-rule="nonzero">
            <path d="M15,0 C7.12875,0 0,6.34195455 0,14.1673636 C0,21.9909091 3.75,27.9545455 15,41 C26.25,27.9545455 30,21.9909091 30,14.1673636 C30,6.34195455 22.873125,0 15,0 Z" id="Shape" fill="#005962"></path>
            <g id="C3" transform="translate(6.265625, 8.414062)" fill="#FFFFFF">
                <path d="M5.359375,2.015625 C4.44791667,2.015625 3.7421875,2.35807292 3.2421875,3.04296875 C2.7421875,3.72786458 2.4921875,4.68229167 2.4921875,5.90625 C2.4921875,8.453125 3.44791667,9.7265625 5.359375,9.7265625 C6.16145833,9.7265625 7.1328125,9.52604167 8.2734375,9.125 L8.2734375,11.15625 C7.3359375,11.546875 6.2890625,11.7421875 5.1328125,11.7421875 C3.47135417,11.7421875 2.20052083,11.2382812 1.3203125,10.2304688 C0.440104167,9.22265625 0,7.77604167 0,5.890625 C0,4.703125 0.216145833,3.66276042 0.6484375,2.76953125 C1.08072917,1.87630208 1.70182292,1.19140625 2.51171875,0.71484375 C3.32161458,0.23828125 4.27083333,0 5.359375,0 C6.46875,0 7.58333333,0.268229167 8.703125,0.8046875 L7.921875,2.7734375 C7.49479167,2.5703125 7.06510417,2.39322917 6.6328125,2.2421875 C6.20052083,2.09114583 5.77604167,2.015625 5.359375,2.015625 Z" id="Path"></path>
                <path d="M17.4453125,2.71875 C17.4453125,3.43229167 17.2291667,4.0390625 16.796875,4.5390625 C16.3645833,5.0390625 15.7578125,5.3828125 14.9765625,5.5703125 L14.9765625,5.6171875 C15.8984375,5.73177083 16.5963542,6.01171875 17.0703125,6.45703125 C17.5442708,6.90234375 17.78125,7.50260417 17.78125,8.2578125 C17.78125,9.35677083 17.3828125,10.2122396 16.5859375,10.8242188 C15.7890625,11.4361979 14.6510417,11.7421875 13.171875,11.7421875 C11.9322917,11.7421875 10.8333333,11.5364583 9.875,11.125 L9.875,9.0703125 C10.3177083,9.29427083 10.8046875,9.4765625 11.3359375,9.6171875 C11.8671875,9.7578125 12.3932292,9.828125 12.9140625,9.828125 C13.7109375,9.828125 14.2994792,9.69270833 14.6796875,9.421875 C15.0598958,9.15104167 15.25,8.71614583 15.25,8.1171875 C15.25,7.58072917 15.03125,7.20052083 14.59375,6.9765625 C14.15625,6.75260417 13.4583333,6.640625 12.5,6.640625 L11.6328125,6.640625 L11.6328125,4.7890625 L12.515625,4.7890625 C13.4010417,4.7890625 14.0481771,4.67317708 14.4570312,4.44140625 C14.8658854,4.20963542 15.0703125,3.8125 15.0703125,3.25 C15.0703125,2.38541667 14.5286458,1.953125 13.4453125,1.953125 C13.0703125,1.953125 12.6888021,2.015625 12.3007812,2.140625 C11.9127604,2.265625 11.4817708,2.48177083 11.0078125,2.7890625 L9.890625,1.125 C10.9322917,0.375 12.1744792,0 13.6171875,0 C14.7994792,0 15.7330729,0.239583333 16.4179688,0.71875 C17.1028646,1.19791667 17.4453125,1.86458333 17.4453125,2.71875 Z" id="Path"></path>
            </g>
        </g>
    </g>
</svg>