<?xml version="1.0" encoding="UTF-8"?>
<svg width="48px" height="48px" viewBox="0 0 48 48" version="1.1" xmlns="http://www.w3.org/2000/svg" xmlns:xlink="http://www.w3.org/1999/xlink">
    <title>LocationMarker_B6</title>
    <g id="LocationMarker_B6" stroke="none" stroke-width="1" fill="none" fill-rule="evenodd">
        <g id="Group" transform="translate(9.000000, 7.000000)" fill-rule="nonzero">
            <path d="M15,0 C7.12875,0 0,6.34195455 0,14.1673636 C0,21.9909091 3.75,27.9545455 15,41 C26.25,27.9545455 30,21.9909091 30,14.1673636 C30,6.34195455 22.873125,0 15,0 Z" id="Shape" fill="#005962"></path>
            <g id="B6" transform="translate(6.496094, 8.445312)" fill="#FFFFFF">
                <path d="M0,0.1328125 L3.5546875,0.1328125 C5.17447917,0.1328125 6.35026042,0.36328125 7.08203125,0.82421875 C7.81380208,1.28515625 8.1796875,2.01822917 8.1796875,3.0234375 C8.1796875,3.70572917 8.01953125,4.265625 7.69921875,4.703125 C7.37890625,5.140625 6.953125,5.40364583 6.421875,5.4921875 L6.421875,5.5703125 C7.14583333,5.73177083 7.66796875,6.03385417 7.98828125,6.4765625 C8.30859375,6.91927083 8.46875,7.5078125 8.46875,8.2421875 C8.46875,9.28385417 8.09244792,10.0963542 7.33984375,10.6796875 C6.58723958,11.2630208 5.56510417,11.5546875 4.2734375,11.5546875 L0,11.5546875 L0,0.1328125 Z M2.421875,4.65625 L3.828125,4.65625 C4.484375,4.65625 4.95963542,4.5546875 5.25390625,4.3515625 C5.54817708,4.1484375 5.6953125,3.8125 5.6953125,3.34375 C5.6953125,2.90625 5.53515625,2.59244792 5.21484375,2.40234375 C4.89453125,2.21223958 4.38802083,2.1171875 3.6953125,2.1171875 L2.421875,2.1171875 L2.421875,4.65625 Z M2.421875,6.578125 L2.421875,9.5546875 L4,9.5546875 C4.66666667,9.5546875 5.15885417,9.42708333 5.4765625,9.171875 C5.79427083,8.91666667 5.953125,8.52604167 5.953125,8 C5.953125,7.05208333 5.27604167,6.578125 3.921875,6.578125 L2.421875,6.578125 Z" id="Shape"></path>
                <path d="M9.875,6.703125 C9.875,4.44270833 10.3528646,2.76041667 11.3085938,1.65625 C12.2643229,0.552083333 13.6953125,0 15.6015625,0 C16.2526042,0 16.7630208,0.0390625 17.1328125,0.1171875 L17.1328125,2.046875 C16.6692708,1.94270833 16.2109375,1.890625 15.7578125,1.890625 C14.9296875,1.890625 14.2539062,2.015625 13.7304688,2.265625 C13.2070312,2.515625 12.8151042,2.88541667 12.5546875,3.375 C12.2942708,3.86458333 12.140625,4.55989583 12.09375,5.4609375 L12.1953125,5.4609375 C12.7109375,4.57552083 13.5364583,4.1328125 14.671875,4.1328125 C15.6927083,4.1328125 16.4921875,4.453125 17.0703125,5.09375 C17.6484375,5.734375 17.9375,6.61979167 17.9375,7.75 C17.9375,8.96875 17.59375,9.93359375 16.90625,10.6445312 C16.21875,11.3554688 15.265625,11.7109375 14.046875,11.7109375 C13.203125,11.7109375 12.4674479,11.515625 11.8398438,11.125 C11.2122396,10.734375 10.7278646,10.1640625 10.3867188,9.4140625 C10.0455729,8.6640625 9.875,7.76041667 9.875,6.703125 Z M14,9.78125 C14.515625,9.78125 14.9114583,9.60807292 15.1875,9.26171875 C15.4635417,8.91536458 15.6015625,8.421875 15.6015625,7.78125 C15.6015625,7.22395833 15.4726562,6.78515625 15.2148438,6.46484375 C14.9570312,6.14453125 14.5677083,5.984375 14.046875,5.984375 C13.5572917,5.984375 13.1393229,6.14322917 12.7929688,6.4609375 C12.4466146,6.77864583 12.2734375,7.1484375 12.2734375,7.5703125 C12.2734375,8.19010417 12.4361979,8.71354167 12.7617188,9.140625 C13.0872396,9.56770833 13.5,9.78125 14,9.78125 Z" id="Shape"></path>
            </g>
        </g>
    </g>
</svg>