<?xml version="1.0" encoding="UTF-8"?>
<svg width="48px" height="48px" viewBox="0 0 48 48" version="1.1" xmlns="http://www.w3.org/2000/svg" xmlns:xlink="http://www.w3.org/1999/xlink">
    <title>LocationMarker_A3</title>
    <g id="LocationMarker_A3" stroke="none" stroke-width="1" fill="none" fill-rule="evenodd">
        <g id="Group" transform="translate(9.000000, 7.000000)" fill-rule="nonzero">
            <path d="M15,0 C7.12875,0 0,6.34195455 0,14.1673636 C0,21.9909091 3.75,27.9545455 15,41 C26.25,27.9545455 30,21.9909091 30,14.1673636 C30,6.34195455 22.873125,0 15,0 Z" id="Shape" fill="#005962"></path>
            <g id="A3" transform="translate(4.914062, 8.414062)" fill="#FFFFFF">
                <path d="M8.4296875,11.5859375 L7.6015625,8.8671875 L3.4375,8.8671875 L2.609375,11.5859375 L0,11.5859375 L4.03125,0.1171875 L6.9921875,0.1171875 L11.0390625,11.5859375 L8.4296875,11.5859375 Z M7.0234375,6.8359375 C6.2578125,4.37239583 5.82682292,2.97916667 5.73046875,2.65625 C5.63411458,2.33333333 5.56510417,2.078125 5.5234375,1.890625 C5.3515625,2.55729167 4.859375,4.20572917 4.046875,6.8359375 L7.0234375,6.8359375 Z" id="Shape"></path>
                <path d="M19.21875,2.71875 C19.21875,3.43229167 19.0026042,4.0390625 18.5703125,4.5390625 C18.1380208,5.0390625 17.53125,5.3828125 16.75,5.5703125 L16.75,5.6171875 C17.671875,5.73177083 18.3697917,6.01171875 18.84375,6.45703125 C19.3177083,6.90234375 19.5546875,7.50260417 19.5546875,8.2578125 C19.5546875,9.35677083 19.15625,10.2122396 18.359375,10.8242188 C17.5625,11.4361979 16.4244792,11.7421875 14.9453125,11.7421875 C13.7057292,11.7421875 12.6067708,11.5364583 11.6484375,11.125 L11.6484375,9.0703125 C12.0911458,9.29427083 12.578125,9.4765625 13.109375,9.6171875 C13.640625,9.7578125 14.1666667,9.828125 14.6875,9.828125 C15.484375,9.828125 16.0729167,9.69270833 16.453125,9.421875 C16.8333333,9.15104167 17.0234375,8.71614583 17.0234375,8.1171875 C17.0234375,7.58072917 16.8046875,7.20052083 16.3671875,6.9765625 C15.9296875,6.75260417 15.2317708,6.640625 14.2734375,6.640625 L13.40625,6.640625 L13.40625,4.7890625 L14.2890625,4.7890625 C15.1744792,4.7890625 15.8216146,4.67317708 16.2304688,4.44140625 C16.6393229,4.20963542 16.84375,3.8125 16.84375,3.25 C16.84375,2.38541667 16.3020833,1.953125 15.21875,1.953125 C14.84375,1.953125 14.4622396,2.015625 14.0742188,2.140625 C13.6861979,2.265625 13.2552083,2.48177083 12.78125,2.7890625 L11.6640625,1.125 C12.7057292,0.375 13.9479167,0 15.390625,0 C16.5729167,0 17.5065104,0.239583333 18.1914062,0.71875 C18.8763021,1.19791667 19.21875,1.86458333 19.21875,2.71875 Z" id="Path"></path>
            </g>
        </g>
    </g>
</svg>