<?xml version="1.0" encoding="UTF-8"?>
<svg width="48px" height="48px" viewBox="0 0 48 48" version="1.1" xmlns="http://www.w3.org/2000/svg" xmlns:xlink="http://www.w3.org/1999/xlink">
    <title>LocationMarker_A2</title>
    <g id="LocationMarker_A2" stroke="none" stroke-width="1" fill="none" fill-rule="evenodd">
        <g id="Group" transform="translate(9.000000, 7.000000)" fill-rule="nonzero">
            <path d="M15,0 C7.12875,0 0,6.34195455 0,14.1673636 C0,21.9909091 3.75,27.9545455 15,41 C26.25,27.9545455 30,21.9909091 30,14.1673636 C30,6.34195455 22.873125,0 15,0 Z" id="Shape" fill="#005962"></path>
            <g id="A2" transform="translate(4.914062, 8.414062)" fill="#FFFFFF">
                <path d="M8.4296875,11.5859375 L7.6015625,8.8671875 L3.4375,8.8671875 L2.609375,11.5859375 L0,11.5859375 L4.03125,0.1171875 L6.9921875,0.1171875 L11.0390625,11.5859375 L8.4296875,11.5859375 Z M7.0234375,6.8359375 C6.2578125,4.37239583 5.82682292,2.97916667 5.73046875,2.65625 C5.63411458,2.33333333 5.56510417,2.078125 5.5234375,1.890625 C5.3515625,2.55729167 4.859375,4.20572917 4.046875,6.8359375 L7.0234375,6.8359375 Z" id="Shape"></path>
                <path d="M19.6640625,11.5859375 L11.6796875,11.5859375 L11.6796875,9.90625 L14.546875,7.0078125 C15.3958333,6.13802083 15.9505208,5.53515625 16.2109375,5.19921875 C16.4713542,4.86328125 16.6588542,4.55208333 16.7734375,4.265625 C16.8880208,3.97916667 16.9453125,3.68229167 16.9453125,3.375 C16.9453125,2.91666667 16.8190104,2.57552083 16.5664062,2.3515625 C16.3138021,2.12760417 15.9765625,2.015625 15.5546875,2.015625 C15.1119792,2.015625 14.6822917,2.1171875 14.265625,2.3203125 C13.8489583,2.5234375 13.4140625,2.8125 12.9609375,3.1875 L11.6484375,1.6328125 C12.2109375,1.15364583 12.6770833,0.815104167 13.046875,0.6171875 C13.4166667,0.419270833 13.8203125,0.266927083 14.2578125,0.16015625 C14.6953125,0.0533854167 15.1848958,0 15.7265625,0 C16.4401042,0 17.0703125,0.130208333 17.6171875,0.390625 C18.1640625,0.651041667 18.5885417,1.015625 18.890625,1.484375 C19.1927083,1.953125 19.34375,2.48958333 19.34375,3.09375 C19.34375,3.61979167 19.2513021,4.11328125 19.0664062,4.57421875 C18.8815104,5.03515625 18.5950521,5.5078125 18.2070312,5.9921875 C17.8190104,6.4765625 17.1354167,7.16666667 16.15625,8.0625 L14.6875,9.4453125 L14.6875,9.5546875 L19.6640625,9.5546875 L19.6640625,11.5859375 Z" id="Path"></path>
            </g>
        </g>
    </g>
</svg>