<?xml version="1.0" encoding="UTF-8"?>
<svg width="48px" height="48px" viewBox="0 0 48 48" version="1.1" xmlns="http://www.w3.org/2000/svg" xmlns:xlink="http://www.w3.org/1999/xlink">
    <title>LocationMarker_B7</title>
    <g id="LocationMarker_B7" stroke="none" stroke-width="1" fill="none" fill-rule="evenodd">
        <g id="Group" transform="translate(9.000000, 7.000000)" fill-rule="nonzero">
            <path d="M15,0 C7.12875,0 0,6.34195455 0,14.1673636 C0,21.9909091 3.75,27.9545455 15,41 C26.25,27.9545455 30,21.9909091 30,14.1673636 C30,6.34195455 22.873125,0 15,0 Z" id="Shape" fill="#005962"></path>
            <g id="B7" transform="translate(6.496094, 8.578125)" fill="#FFFFFF">
                <path d="M0,0 L3.5546875,0 C5.17447917,0 6.35026042,0.23046875 7.08203125,0.69140625 C7.81380208,1.15234375 8.1796875,1.88541667 8.1796875,2.890625 C8.1796875,3.57291667 8.01953125,4.1328125 7.69921875,4.5703125 C7.37890625,5.0078125 6.953125,5.27083333 6.421875,5.359375 L6.421875,5.4375 C7.14583333,5.59895833 7.66796875,5.90104167 7.98828125,6.34375 C8.30859375,6.78645833 8.46875,7.375 8.46875,8.109375 C8.46875,9.15104167 8.09244792,9.96354167 7.33984375,10.546875 C6.58723958,11.1302083 5.56510417,11.421875 4.2734375,11.421875 L0,11.421875 L0,0 Z M2.421875,4.5234375 L3.828125,4.5234375 C4.484375,4.5234375 4.95963542,4.421875 5.25390625,4.21875 C5.54817708,4.015625 5.6953125,3.6796875 5.6953125,3.2109375 C5.6953125,2.7734375 5.53515625,2.45963542 5.21484375,2.26953125 C4.89453125,2.07942708 4.38802083,1.984375 3.6953125,1.984375 L2.421875,1.984375 L2.421875,4.5234375 Z M2.421875,6.4453125 L2.421875,9.421875 L4,9.421875 C4.66666667,9.421875 5.15885417,9.29427083 5.4765625,9.0390625 C5.79427083,8.78385417 5.953125,8.39322917 5.953125,7.8671875 C5.953125,6.91927083 5.27604167,6.4453125 3.921875,6.4453125 L2.421875,6.4453125 Z" id="Shape"></path>
                <polygon id="Path" points="11.0859375 11.421875 15.375 2.046875 9.7421875 2.046875 9.7421875 0.015625 17.9375 0.015625 17.9375 1.53125 13.6171875 11.421875"></polygon>
            </g>
        </g>
    </g>
</svg>