<?xml version="1.0" encoding="UTF-8"?>
<svg width="48px" height="48px" viewBox="0 0 48 48" version="1.1" xmlns="http://www.w3.org/2000/svg" xmlns:xlink="http://www.w3.org/1999/xlink">
    <title>LocationMarker_B5</title>
    <g id="LocationMarker_B5" stroke="none" stroke-width="1" fill="none" fill-rule="evenodd">
        <g id="Group" transform="translate(9.000000, 7.000000)" fill-rule="nonzero">
            <path d="M15,0 C7.12875,0 0,6.34195455 0,14.1673636 C0,21.9909091 3.75,27.9545455 15,41 C26.25,27.9545455 30,21.9909091 30,14.1673636 C30,6.34195455 22.873125,0 15,0 Z" id="Shape" fill="#005962"></path>
            <g id="B5" transform="translate(6.496094, 8.578125)" fill="#FFFFFF">
                <path d="M0,0 L3.5546875,0 C5.17447917,0 6.35026042,0.23046875 7.08203125,0.69140625 C7.81380208,1.15234375 8.1796875,1.88541667 8.1796875,2.890625 C8.1796875,3.57291667 8.01953125,4.1328125 7.69921875,4.5703125 C7.37890625,5.0078125 6.953125,5.27083333 6.421875,5.359375 L6.421875,5.4375 C7.14583333,5.59895833 7.66796875,5.90104167 7.98828125,6.34375 C8.30859375,6.78645833 8.46875,7.375 8.46875,8.109375 C8.46875,9.15104167 8.09244792,9.96354167 7.33984375,10.546875 C6.58723958,11.1302083 5.56510417,11.421875 4.2734375,11.421875 L0,11.421875 L0,0 Z M2.421875,4.5234375 L3.828125,4.5234375 C4.484375,4.5234375 4.95963542,4.421875 5.25390625,4.21875 C5.54817708,4.015625 5.6953125,3.6796875 5.6953125,3.2109375 C5.6953125,2.7734375 5.53515625,2.45963542 5.21484375,2.26953125 C4.89453125,2.07942708 4.38802083,1.984375 3.6953125,1.984375 L2.421875,1.984375 L2.421875,4.5234375 Z M2.421875,6.4453125 L2.421875,9.421875 L4,9.421875 C4.66666667,9.421875 5.15885417,9.29427083 5.4765625,9.0390625 C5.79427083,8.78385417 5.953125,8.39322917 5.953125,7.8671875 C5.953125,6.91927083 5.27604167,6.4453125 3.921875,6.4453125 L2.421875,6.4453125 Z" id="Shape"></path>
                <path d="M14.109375,4.125 C15.2135417,4.125 16.0924479,4.43489583 16.7460938,5.0546875 C17.3997396,5.67447917 17.7265625,6.5234375 17.7265625,7.6015625 C17.7265625,8.87760417 17.3333333,9.859375 16.546875,10.546875 C15.7604167,11.234375 14.6354167,11.578125 13.171875,11.578125 C11.9010417,11.578125 10.875,11.3723958 10.09375,10.9609375 L10.09375,8.875 C10.5052083,9.09375 10.984375,9.27213542 11.53125,9.41015625 C12.078125,9.54817708 12.5963542,9.6171875 13.0859375,9.6171875 C14.5598958,9.6171875 15.296875,9.01302083 15.296875,7.8046875 C15.296875,6.65364583 14.5338542,6.078125 13.0078125,6.078125 C12.7317708,6.078125 12.4270833,6.10546875 12.09375,6.16015625 C11.7604167,6.21484375 11.4895833,6.2734375 11.28125,6.3359375 L10.3203125,5.8203125 L10.75,0 L16.9453125,0 L16.9453125,2.046875 L12.8671875,2.046875 L12.65625,4.2890625 L12.9296875,4.234375 C13.2473958,4.16145833 13.640625,4.125 14.109375,4.125 Z" id="Path"></path>
            </g>
        </g>
    </g>
</svg>