<?xml version="1.0" encoding="UTF-8"?>
<svg width="48px" height="48px" viewBox="0 0 48 48" version="1.1" xmlns="http://www.w3.org/2000/svg" xmlns:xlink="http://www.w3.org/1999/xlink">
    <title>LocationMarker_C4</title>
    <g id="LocationMarker_C4" stroke="none" stroke-width="1" fill="none" fill-rule="evenodd">
        <g id="Group" transform="translate(9.000000, 7.000000)" fill-rule="nonzero">
            <path d="M15,0 C7.12875,0 0,6.34195455 0,14.1673636 C0,21.9909091 3.75,27.9545455 15,41 C26.25,27.9545455 30,21.9909091 30,14.1673636 C30,6.34195455 22.873125,0 15,0 Z" id="Shape" fill="#005962"></path>
            <g id="C4" transform="translate(6.265625, 8.414062)" fill="#FFFFFF">
                <path d="M5.359375,2.015625 C4.44791667,2.015625 3.7421875,2.35807292 3.2421875,3.04296875 C2.7421875,3.72786458 2.4921875,4.68229167 2.4921875,5.90625 C2.4921875,8.453125 3.44791667,9.7265625 5.359375,9.7265625 C6.16145833,9.7265625 7.1328125,9.52604167 8.2734375,9.125 L8.2734375,11.15625 C7.3359375,11.546875 6.2890625,11.7421875 5.1328125,11.7421875 C3.47135417,11.7421875 2.20052083,11.2382812 1.3203125,10.2304688 C0.440104167,9.22265625 0,7.77604167 0,5.890625 C0,4.703125 0.216145833,3.66276042 0.6484375,2.76953125 C1.08072917,1.87630208 1.70182292,1.19140625 2.51171875,0.71484375 C3.32161458,0.23828125 4.27083333,0 5.359375,0 C6.46875,0 7.58333333,0.268229167 8.703125,0.8046875 L7.921875,2.7734375 C7.49479167,2.5703125 7.06510417,2.39322917 6.6328125,2.2421875 C6.20052083,2.09114583 5.77604167,2.015625 5.359375,2.015625 Z" id="Path"></path>
                <path d="M18.1484375,9.21875 L16.7734375,9.21875 L16.7734375,11.5859375 L14.4140625,11.5859375 L14.4140625,9.21875 L9.5390625,9.21875 L9.5390625,7.5390625 L14.546875,0.1640625 L16.7734375,0.1640625 L16.7734375,7.34375 L18.1484375,7.34375 L18.1484375,9.21875 Z M14.4140625,7.34375 L14.4140625,5.40625 C14.4140625,5.08333333 14.4270833,4.61458333 14.453125,4 C14.4791667,3.38541667 14.5,3.02864583 14.515625,2.9296875 L14.453125,2.9296875 C14.2604167,3.35677083 14.0286458,3.7734375 13.7578125,4.1796875 L11.6640625,7.34375 L14.4140625,7.34375 Z" id="Shape"></path>
            </g>
        </g>
    </g>
</svg>