<?xml version="1.0" encoding="UTF-8"?>
<svg width="48px" height="48px" viewBox="0 0 48 48" version="1.1" xmlns="http://www.w3.org/2000/svg" xmlns:xlink="http://www.w3.org/1999/xlink">
    <title>LocationMarker_B2</title>
    <g id="LocationMarker_B2" stroke="none" stroke-width="1" fill="none" fill-rule="evenodd">
        <g id="Group" transform="translate(9.000000, 7.000000)" fill-rule="nonzero">
            <path d="M15,0 C7.12875,0 0,6.34195455 0,14.1673636 C0,21.9909091 3.75,27.9545455 15,41 C26.25,27.9545455 30,21.9909091 30,14.1673636 C30,6.34195455 22.873125,0 15,0 Z" id="Shape" fill="#005962"></path>
            <g id="B2" transform="translate(6.496094, 8.414062)" fill="#FFFFFF">
                <path d="M0,0.1640625 L3.5546875,0.1640625 C5.17447917,0.1640625 6.35026042,0.39453125 7.08203125,0.85546875 C7.81380208,1.31640625 8.1796875,2.04947917 8.1796875,3.0546875 C8.1796875,3.73697917 8.01953125,4.296875 7.69921875,4.734375 C7.37890625,5.171875 6.953125,5.43489583 6.421875,5.5234375 L6.421875,5.6015625 C7.14583333,5.76302083 7.66796875,6.06510417 7.98828125,6.5078125 C8.30859375,6.95052083 8.46875,7.5390625 8.46875,8.2734375 C8.46875,9.31510417 8.09244792,10.1276042 7.33984375,10.7109375 C6.58723958,11.2942708 5.56510417,11.5859375 4.2734375,11.5859375 L0,11.5859375 L0,0.1640625 Z M2.421875,4.6875 L3.828125,4.6875 C4.484375,4.6875 4.95963542,4.5859375 5.25390625,4.3828125 C5.54817708,4.1796875 5.6953125,3.84375 5.6953125,3.375 C5.6953125,2.9375 5.53515625,2.62369792 5.21484375,2.43359375 C4.89453125,2.24348958 4.38802083,2.1484375 3.6953125,2.1484375 L2.421875,2.1484375 L2.421875,4.6875 Z M2.421875,6.609375 L2.421875,9.5859375 L4,9.5859375 C4.66666667,9.5859375 5.15885417,9.45833333 5.4765625,9.203125 C5.79427083,8.94791667 5.953125,8.55729167 5.953125,8.03125 C5.953125,7.08333333 5.27604167,6.609375 3.921875,6.609375 L2.421875,6.609375 Z" id="Shape"></path>
                <path d="M17.9375,11.5859375 L9.953125,11.5859375 L9.953125,9.90625 L12.8203125,7.0078125 C13.6692708,6.13802083 14.2239583,5.53515625 14.484375,5.19921875 C14.7447917,4.86328125 14.9322917,4.55208333 15.046875,4.265625 C15.1614583,3.97916667 15.21875,3.68229167 15.21875,3.375 C15.21875,2.91666667 15.0924479,2.57552083 14.8398438,2.3515625 C14.5872396,2.12760417 14.25,2.015625 13.828125,2.015625 C13.3854167,2.015625 12.9557292,2.1171875 12.5390625,2.3203125 C12.1223958,2.5234375 11.6875,2.8125 11.234375,3.1875 L9.921875,1.6328125 C10.484375,1.15364583 10.9505208,0.815104167 11.3203125,0.6171875 C11.6901042,0.419270833 12.09375,0.266927083 12.53125,0.16015625 C12.96875,0.0533854167 13.4583333,0 14,0 C14.7135417,0 15.34375,0.130208333 15.890625,0.390625 C16.4375,0.651041667 16.8619792,1.015625 17.1640625,1.484375 C17.4661458,1.953125 17.6171875,2.48958333 17.6171875,3.09375 C17.6171875,3.61979167 17.5247396,4.11328125 17.3398438,4.57421875 C17.1549479,5.03515625 16.8684896,5.5078125 16.4804688,5.9921875 C16.0924479,6.4765625 15.4088542,7.16666667 14.4296875,8.0625 L12.9609375,9.4453125 L12.9609375,9.5546875 L17.9375,9.5546875 L17.9375,11.5859375 Z" id="Path"></path>
            </g>
        </g>
    </g>
</svg>