<?xml version="1.0" encoding="UTF-8"?>
<svg width="48px" height="48px" viewBox="0 0 48 48" version="1.1" xmlns="http://www.w3.org/2000/svg" xmlns:xlink="http://www.w3.org/1999/xlink">
    <title>LocationMarker_D</title>
    <g id="LocationMarker_D" stroke="none" stroke-width="1" fill="none" fill-rule="evenodd">
        <g id="Group" transform="translate(9.000000, 7.000000)" fill-rule="nonzero">
            <path d="M15,0 C7.12875,0 0,6.34195455 0,14.1673636 C0,21.9909091 3.75,27.9545455 15,41 C26.25,27.9545455 30,21.9909091 30,14.1673636 C30,6.34195455 22.873125,0 15,0 Z" id="Shape" fill="#005962"></path>
            <g id="D" transform="translate(10.515625, 8.578125)" fill="#FFFFFF">
                <path d="M9.4765625,5.6015625 C9.4765625,7.48177083 8.94140625,8.921875 7.87109375,9.921875 C6.80078125,10.921875 5.25520833,11.421875 3.234375,11.421875 L0,11.421875 L0,0 L3.5859375,0 C5.45052083,0 6.8984375,0.4921875 7.9296875,1.4765625 C8.9609375,2.4609375 9.4765625,3.8359375 9.4765625,5.6015625 Z M6.9609375,5.6640625 C6.9609375,3.2109375 5.87760417,1.984375 3.7109375,1.984375 L2.421875,1.984375 L2.421875,9.421875 L3.4609375,9.421875 C5.79427083,9.421875 6.9609375,8.16927083 6.9609375,5.6640625 Z" id="Shape"></path>
            </g>
        </g>
    </g>
</svg>