<?xml version="1.0" encoding="UTF-8"?>
<svg width="48px" height="48px" viewBox="0 0 48 48" version="1.1" xmlns="http://www.w3.org/2000/svg" xmlns:xlink="http://www.w3.org/1999/xlink">
    <title>LocationMarker_B3</title>
    <g id="LocationMarker_B3" stroke="none" stroke-width="1" fill="none" fill-rule="evenodd">
        <g id="Group" transform="translate(9.000000, 7.000000)" fill-rule="nonzero">
            <path d="M15,0 C7.12875,0 0,6.34195455 0,14.1673636 C0,21.9909091 3.75,27.9545455 15,41 C26.25,27.9545455 30,21.9909091 30,14.1673636 C30,6.34195455 22.873125,0 15,0 Z" id="Shape" fill="#005962"></path>
            <g id="B3" transform="translate(6.496094, 8.414062)" fill="#FFFFFF">
                <path d="M0,0.1640625 L3.5546875,0.1640625 C5.17447917,0.1640625 6.35026042,0.39453125 7.08203125,0.85546875 C7.81380208,1.31640625 8.1796875,2.04947917 8.1796875,3.0546875 C8.1796875,3.73697917 8.01953125,4.296875 7.69921875,4.734375 C7.37890625,5.171875 6.953125,5.43489583 6.421875,5.5234375 L6.421875,5.6015625 C7.14583333,5.76302083 7.66796875,6.06510417 7.98828125,6.5078125 C8.30859375,6.95052083 8.46875,7.5390625 8.46875,8.2734375 C8.46875,9.31510417 8.09244792,10.1276042 7.33984375,10.7109375 C6.58723958,11.2942708 5.56510417,11.5859375 4.2734375,11.5859375 L0,11.5859375 L0,0.1640625 Z M2.421875,4.6875 L3.828125,4.6875 C4.484375,4.6875 4.95963542,4.5859375 5.25390625,4.3828125 C5.54817708,4.1796875 5.6953125,3.84375 5.6953125,3.375 C5.6953125,2.9375 5.53515625,2.62369792 5.21484375,2.43359375 C4.89453125,2.24348958 4.38802083,2.1484375 3.6953125,2.1484375 L2.421875,2.1484375 L2.421875,4.6875 Z M2.421875,6.609375 L2.421875,9.5859375 L4,9.5859375 C4.66666667,9.5859375 5.15885417,9.45833333 5.4765625,9.203125 C5.79427083,8.94791667 5.953125,8.55729167 5.953125,8.03125 C5.953125,7.08333333 5.27604167,6.609375 3.921875,6.609375 L2.421875,6.609375 Z" id="Shape"></path>
                <path d="M17.4921875,2.71875 C17.4921875,3.43229167 17.2760417,4.0390625 16.84375,4.5390625 C16.4114583,5.0390625 15.8046875,5.3828125 15.0234375,5.5703125 L15.0234375,5.6171875 C15.9453125,5.73177083 16.6432292,6.01171875 17.1171875,6.45703125 C17.5911458,6.90234375 17.828125,7.50260417 17.828125,8.2578125 C17.828125,9.35677083 17.4296875,10.2122396 16.6328125,10.8242188 C15.8359375,11.4361979 14.6979167,11.7421875 13.21875,11.7421875 C11.9791667,11.7421875 10.8802083,11.5364583 9.921875,11.125 L9.921875,9.0703125 C10.3645833,9.29427083 10.8515625,9.4765625 11.3828125,9.6171875 C11.9140625,9.7578125 12.4401042,9.828125 12.9609375,9.828125 C13.7578125,9.828125 14.3463542,9.69270833 14.7265625,9.421875 C15.1067708,9.15104167 15.296875,8.71614583 15.296875,8.1171875 C15.296875,7.58072917 15.078125,7.20052083 14.640625,6.9765625 C14.203125,6.75260417 13.5052083,6.640625 12.546875,6.640625 L11.6796875,6.640625 L11.6796875,4.7890625 L12.5625,4.7890625 C13.4479167,4.7890625 14.0950521,4.67317708 14.5039062,4.44140625 C14.9127604,4.20963542 15.1171875,3.8125 15.1171875,3.25 C15.1171875,2.38541667 14.5755208,1.953125 13.4921875,1.953125 C13.1171875,1.953125 12.7356771,2.015625 12.3476562,2.140625 C11.9596354,2.265625 11.5286458,2.48177083 11.0546875,2.7890625 L9.9375,1.125 C10.9791667,0.375 12.2213542,0 13.6640625,0 C14.8463542,0 15.7799479,0.239583333 16.4648438,0.71875 C17.1497396,1.19791667 17.4921875,1.86458333 17.4921875,2.71875 Z" id="Path"></path>
            </g>
        </g>
    </g>
</svg>