<svg xmlns:xlink="http://www.w3.org/1999/xlink" width="300" xmlns="http://www.w3.org/2000/svg" height="300" id="screenshot-9980306d-f99b-8007-8002-8e8da815af1e" viewBox="0 0 300 300" style="-webkit-print-color-adjust: exact;" fill="none" version="1.1"><g id="shape-9980306d-f99b-8007-8002-8e8da815af1e" height="48" width="48" rx="0" ry="0" style="fill: rgb(0, 0, 0);"><g id="shape-9980306d-f99b-8007-8002-8e8da815af20"><g class="fills" id="fills-9980306d-f99b-8007-8002-8e8da815af20"><path rx="0" ry="0" d="M138.125,224.375C114.167,224.375,93.490,215.885,76.094,198.906C58.698,181.927,50.000,161.771,50.000,138.438L50.000,56.250C50.000,51.250,51.875,46.875,55.625,43.125C59.375,39.375,63.750,37.500,68.750,37.500L234.063,37.500C245.369,37.500,255.019,41.354,263.011,49.063C271.004,56.771,275.000,66.250,275.000,77.500C275.000,88.750,271.004,98.229,263.011,105.938C255.019,113.646,245.369,117.500,234.063,117.500L226.250,117.500L226.250,138.438C226.250,161.771,217.552,181.927,200.156,198.906C182.760,215.885,162.083,224.375,138.125,224.375ZL138.125,224.375ZM201.202,166.590C205.401,157.991,207.500,148.607,207.500,138.438L208.000,56.000L69.000,56.000L68.750,138.438C68.750,148.893,70.969,158.519,75.408,167.314M226.250,98.750L234.063,98.750C240.104,98.750,245.313,96.719,249.688,92.656C254.063,88.594,256.250,83.542,256.250,77.500C256.250,71.458,254.063,66.406,249.688,62.344C245.313,58.281,240.104,56.250,234.063,56.250L226.250,56.250L226.250,98.750ZL226.250,98.750ZM50.000,262.500L50.000,243.750L248.125,243.750L248.125,262.500L50.000,262.500ZL50.000,262.500ZM138.125,117.500L138.125,117.500Z" style="fill: rgb(0, 89, 98); fill-opacity: 1;"/></g></g></g></svg>