<svg xmlns:xlink="http://www.w3.org/1999/xlink" width="300.446" xmlns="http://www.w3.org/2000/svg" height="300.446" id="screenshot-1d8af7ff-090f-80c0-8002-99f4d56b5a1d" viewBox="-0.223 -0.223 300.446 300.446" style="-webkit-print-color-adjust: exact;" fill="none" version="1.1"><g id="shape-1d8af7ff-090f-80c0-8002-99f4d56b5a1d" height="48" width="48" rx="0" ry="0" style="fill: rgb(0, 0, 0);"><g id="shape-1d8af7ff-090f-80c0-8002-99f4d56b5a1f"><g class="fills" id="fills-1d8af7ff-090f-80c0-8002-99f4d56b5a1f"><path rx="0" ry="0" d="M149.777,274.777C132.486,274.777,116.236,271.496,101.027,264.933C85.819,258.371,72.590,249.465,61.340,238.215C50.090,226.965,41.183,213.736,34.621,198.527C28.058,183.319,24.777,167.069,24.777,149.777C24.777,132.486,28.058,116.236,34.621,101.027C41.183,85.819,50.090,72.590,61.340,61.340C72.590,50.090,85.819,41.183,101.027,34.621C116.236,28.058,132.486,24.777,149.777,24.777C167.069,24.777,183.319,28.058,198.527,34.621C213.736,41.183,226.965,50.090,238.215,61.340C249.465,72.590,258.371,85.819,264.933,101.027C271.496,116.236,274.777,132.486,274.777,149.777C274.777,167.069,271.496,183.319,264.933,198.527C258.371,213.736,249.465,226.965,238.215,238.215C226.965,249.465,213.736,258.371,198.527,264.933C183.319,271.496,167.069,274.777,149.777,274.777ZL149.777,274.777ZM149.777,256.027C179.439,256.027,204.562,245.734,225.148,225.148C245.734,204.562,256.027,179.439,256.027,149.777C256.027,137.139,253.840,124.969,249.465,113.268C245.090,101.566,238.944,90.923,231.027,81.340L81.340,231.027C90.715,239.152,101.287,245.350,113.056,249.621C124.826,253.892,137.066,256.027,149.777,256.027ZL149.777,256.027ZM68.840,218.215L218.215,68.840C208.631,60.715,197.989,54.465,186.287,50.090C174.585,45.715,162.415,43.527,149.777,43.527C120.116,43.527,94.992,53.820,74.406,74.406C53.820,94.992,43.527,120.116,43.527,149.777C43.527,162.488,45.819,174.729,50.402,186.498C54.986,198.268,61.131,208.840,68.840,218.215ZL68.840,218.215Z" style="fill: rgb(0, 89, 98); fill-opacity: 1;"/></g></g></g></svg>