<svg width="20" height="20" viewBox="0 0 20 20" fill="none" xmlns="http://www.w3.org/2000/svg">
<circle cx="10" cy="10" r="10" fill="#F8E5E2"/>
<path d="M10.6488 11.0394L12.1153 8.96294H15.2292C15.793 8.96294 16.25 8.49811 16.25 7.92471C16.25 7.35131 15.793 6.88647 15.2292 6.88647H13.5818L15.1654 4.64423C15.4943 4.17849 15.3898 3.5297 14.9318 3.19512C14.4739 2.86054 13.836 2.96687 13.507 3.43262L11.0677 6.88646H5.02083C4.45704 6.88646 4 7.3513 4 7.9247C4 8.4981 4.45704 8.96293 5.02083 8.96293H9.60122L8.13471 11.0394H5.02083C4.45704 11.0394 4 11.5042 4 12.0776C4 12.651 4.45704 13.1159 5.02083 13.1159H6.66822L5.08464 15.3581C4.75758 15.8239 4.86276 16.471 5.3198 16.8049C5.77684 17.1388 6.41338 17.0336 6.74298 16.5697L9.18226 13.1159H15.2292C15.793 13.1159 16.25 12.651 16.25 12.0776C16.25 11.5042 15.793 11.0394 15.2292 11.0394L10.6488 11.0394Z"
      fill="#D34F40"/>
</svg>