<?xml version="1.0" standalone="no"?>
<!DOCTYPE svg PUBLIC "-//W3C//DTD SVG 20010904//EN"
 "http://www.w3.org/TR/2001/REC-SVG-20010904/DTD/svg10.dtd">
<svg version="1.0" xmlns="http://www.w3.org/2000/svg"
 width="270.000000pt" height="270.000000pt" viewBox="0 0 270.000000 270.000000"
 preserveAspectRatio="xMidYMid meet">
<metadata>
Created by potrace 1.14, written by Peter Selinger 2001-2017
</metadata>
<g transform="translate(0.000000,270.000000) scale(0.100000,-0.100000)"
fill="#000000" stroke="none">
<path d="M306 2689 c-62 -15 -153 -68 -197 -116 -22 -24 -55 -74 -72 -111
l-32 -67 0 -1046 0 -1045 37 -76 c45 -91 103 -147 196 -191 l67 -32 1045 0
1045 0 67 32 c93 44 151 100 196 191 l37 76 0 1046 0 1046 -37 76 c-45 91
-103 147 -196 191 l-67 32 -1025 2 c-598 1 -1041 -3 -1064 -8z m777 -672 l139
-229 -64 -105 c-36 -58 -68 -106 -71 -107 -4 0 -67 98 -141 219 l-134 220 -63
0 -64 0 -3 -673 -2 -673 67 3 68 3 478 788 479 787 244 0 244 0 0 -905 0 -905
-247 2 -246 3 -138 226 -137 227 65 108 c36 60 66 110 68 112 1 2 64 -98 140
-223 l137 -225 64 0 64 0 0 675 0 675 -63 0 -63 0 -480 -790 -479 -789 -247
-1 -248 0 0 905 0 905 247 -2 247 -3 139 -228z"/>
</g>
</svg>
