<?xml version="1.0" encoding="utf-8"?>
<svg viewBox="0 0 500 500" xmlns="http://www.w3.org/2000/svg">
  <rect x="100" y="100" width="300" height="300" style="stroke: rgb(0, 0, 0); fill: rgb(255, 255, 255); fill-rule: evenodd; stroke-opacity: 0;"/>
  <circle cx="250" cy="250" r="100" fill="#508785" fill-opacity="0.2"/>
  <path fill-rule="evenodd" clip-rule="evenodd" d="M 227.249 206.516 C 225.585 206.516 223.991 207.184 222.821 208.369 L 202.089 229.433 C 200.945 230.595 200.304 232.16 200.304 233.791 L 200.304 293.485 L 222.821 293.485 L 222.821 243.789 L 277.179 243.789 L 277.179 293.485 L 299.699 293.485 L 299.699 233.791 C 299.699 232.16 299.056 230.595 297.913 229.433 L 277.179 208.369 C 276.011 207.184 274.416 206.516 272.751 206.516 L 227.249 206.516 Z M 213.969 199.655 C 217.471 196.095 222.256 194.091 227.249 194.091 L 272.751 194.091 C 277.745 194.091 282.529 196.095 286.033 199.655 L 306.767 220.716 C 310.199 224.204 312.121 228.899 312.121 233.791 L 312.121 293.485 C 312.121 300.347 306.56 305.909 299.699 305.909 L 277.179 305.909 C 270.316 305.909 264.755 300.347 264.755 293.485 L 264.755 256.213 L 235.247 256.213 L 235.247 293.485 C 235.247 300.347 229.684 305.909 222.821 305.909 L 200.304 305.909 C 193.441 305.909 187.88 300.347 187.88 293.485 L 187.88 233.791 C 187.88 228.899 189.801 224.204 193.235 220.716 L 213.969 199.655 Z" fill="#005962"/>
</svg>