<svg width="215" height="215" viewBox="0 0 215 215" fill="none" xmlns="http://www.w3.org/2000/svg">
<path opacity="0.1" d="M214.667 107.333C214.667 166.612 166.612 214.667 107.333 214.667C48.0548 214.667 0 166.612 0 107.333C0 48.0548 48.0548 0 107.333 0C166.612 0 214.667 48.0548 214.667 107.333Z" fill="#124B4F"/>
<path opacity="0.7" d="M141.5 80.3333H135.75V68.8095C135.75 52.9067 122.87 40 107 40C91.13 40 78.25 52.9067 78.25 68.8095V80.3333H72.5C66.175 80.3333 61 85.519 61 91.8571V149.476C61 155.814 66.175 161 72.5 161H141.5C147.825 161 153 155.814 153 149.476V91.8571C153 85.519 147.825 80.3333 141.5 80.3333ZM89.75 68.8095C89.75 59.2448 97.455 51.5238 107 51.5238C116.545 51.5238 124.25 59.2448 124.25 68.8095V80.3333H89.75V68.8095ZM141.5 149.476H72.5V91.8571H141.5V149.476ZM107 132.19C113.325 132.19 118.5 127.005 118.5 120.667C118.5 114.329 113.325 109.143 107 109.143C100.675 109.143 95.5 114.329 95.5 120.667C95.5 127.005 100.675 132.19 107 132.19Z" fill="#124B4F"/>
</svg>
