<svg width="337" height="230" viewBox="0 0 337 230" fill="none" xmlns="http://www.w3.org/2000/svg">
<g opacity="0.7">
<path d="M293.871 10.8611C292.416 10.8611 291.021 11.445 290.001 12.482L280.938 21.6886C279.938 22.7044 279.378 24.0727 279.378 25.4982V51.5902C279.378 53.0899 280.593 54.3055 282.093 54.3055H291.936C293.435 54.3055 294.651 53.0899 294.651 51.5902V32.5833H312.979V51.5902C312.979 53.0899 314.195 54.3055 315.694 54.3055H325.537C327.037 54.3055 328.253 53.0899 328.253 51.5902V25.4982C328.253 24.0727 327.692 22.7044 326.692 21.6886L317.629 12.482C316.609 11.445 315.214 10.8611 313.759 10.8611H293.871Z" fill="#124B4F"/>
</g>
<g opacity="0.7">
<path d="M293.871 93.2778C292.416 93.2778 291.021 93.8618 290.001 94.8988L280.938 104.105C279.938 105.121 279.378 106.489 279.378 107.915V134.007C279.378 135.507 280.593 136.722 282.093 136.722H291.936C293.435 136.722 294.651 135.507 294.651 134.007V115H312.979V134.007C312.979 135.507 314.195 136.722 315.694 136.722H325.537C327.037 136.722 328.253 135.507 328.253 134.007V107.915C328.253 106.489 327.692 105.121 326.692 104.105L317.629 94.8988C316.609 93.8618 315.214 93.2778 313.759 93.2778H293.871Z" fill="#124B4F"/>
</g>
<g opacity="0.7">
<path d="M293.871 175.695C292.416 175.695 291.021 176.279 290.001 177.316L280.938 186.522C279.938 187.538 279.378 188.906 279.378 190.332V216.424C279.378 217.923 280.593 219.139 282.093 219.139H291.936C293.435 219.139 294.651 217.923 294.651 216.424V197.417H312.979V216.424C312.979 217.923 314.195 219.139 315.694 219.139H325.537C327.037 219.139 328.253 217.923 328.253 216.424V190.332C328.253 188.906 327.692 187.538 326.692 186.522L317.629 177.316C316.609 176.279 315.214 175.695 313.759 175.695H293.871Z" fill="#124B4F"/>
</g>
<path opacity="0.1" fill-rule="evenodd" clip-rule="evenodd" d="M193.062 179.593C173.471 205.553 142.362 222.333 107.333 222.333C48.0548 222.333 0 174.278 0 115C0 55.7213 48.0548 7.6665 107.333 7.6665C142.289 7.6665 173.342 24.3765 192.94 50.2443L258.191 28.6399C261.074 27.6851 264.186 29.2488 265.141 32.1324C266.095 35.016 264.532 38.1277 261.648 39.0824L199.349 59.7094C208.908 75.5843 214.476 94.1351 214.662 113.972H260.028C263.065 113.972 265.528 116.435 265.528 119.472C265.528 122.51 263.065 124.972 260.028 124.972H214.21C212.699 141.369 207.5 156.698 199.451 170.121L261.648 190.715C264.532 191.669 266.095 194.781 265.141 197.665C264.186 200.548 261.074 202.112 258.191 201.157L193.062 179.593Z" fill="#124B4F"/>
<g opacity="0.7">
<path fill-rule="evenodd" clip-rule="evenodd" d="M101.503 57.4202H85.132C80.1889 57.4202 75.4527 59.4039 71.985 62.9265L66.2195 68.7836L74.9162 77.4803L80.7497 71.5542C81.9055 70.38 83.4843 69.7188 85.132 69.7188H101.503V57.4202ZM101.503 106.615H80.7496V125.063H93.0482V118.913H101.503V106.615ZM113.802 118.913V106.615H134.556V125.063H122.257V118.913H113.802ZM93.0482 137.361H80.7496V155.809H58.4583V131.212H46.1597V155.809C46.1597 162.601 51.666 168.107 58.4583 168.107H80.7496C87.5419 168.107 93.0482 162.601 93.0482 155.809V137.361ZM46.1597 118.913H58.4583V96.7182C58.4583 95.1041 59.093 93.5546 60.2253 92.4043L66.2882 86.2452L57.5915 77.5485L51.4607 83.7766C48.0637 87.2276 46.1597 91.8758 46.1597 96.7182V118.913ZM122.257 137.361H134.556V155.809H156.847V131.212H169.146V155.809C169.146 162.601 163.64 168.107 156.847 168.107H134.556C127.764 168.107 122.257 162.601 122.257 155.809V137.361ZM169.146 118.913V96.7182C169.146 91.8758 167.242 87.2276 163.845 83.7766L157.954 77.7922L149.257 86.4889L155.08 92.4043C156.213 93.5546 156.847 95.1041 156.847 96.7182V118.913L169.146 118.913ZM140.629 77.724L134.556 71.5542C133.4 70.38 131.821 69.7188 130.174 69.7188H113.802V57.4202H130.174C135.117 57.4202 139.853 59.4039 143.321 62.9265L149.326 69.0273L140.629 77.724Z" fill="#124B4F"/>
</g>
</svg>
