<svg width="190" height="227" viewBox="0 0 190 227" xmlns="http://www.w3.org/2000/svg">
    <path d="M104.042 227H85.125v-48.483c-7.623-1.968-14.31-6.252-19.286-12.05a47.138 47.138 0 0 1-18.547 3.783C21.187 170.25 0 149.063 0 122.958c0-13.45 5.628-25.603 14.66-34.21a32.94 32.94 0 0 1-5.202-17.81c0-17.763 14.027-32.282 31.6-33.067C48.844 15.814 69.879 0 94.584 0c24.706 0 45.74 15.814 53.525 37.871 17.574.785 31.6 15.304 31.6 33.066a32.94 32.94 0 0 1-5.202 17.81c9.033 8.608 14.66 20.762 14.66 34.211 0 26.105-21.186 47.292-47.291 47.292a47.138 47.138 0 0 1-18.548-3.783c-4.975 5.798-11.662 10.082-19.285 12.05V227z" fill="#124B4F" fill-rule="evenodd" fill-opacity=".5"/>
</svg>
