<?xml version="1.0" encoding="utf-8"?>
<!-- Generator: Adobe Illustrator 24.0.0, SVG Export Plug-In . SVG Version: 6.00 Build 0)  -->
<svg version="1.1" id="Ebene_1" xmlns="http://www.w3.org/2000/svg" xmlns:xlink="http://www.w3.org/1999/xlink" x="0px" y="0px"
	 viewBox="0 0 419.11 105.21" style="enable-background:new 0 0 419.11 105.21;" xml:space="preserve">
<style type="text/css">
	.st0{fill:#00000;}
</style>
<g>
	<path class="st0" d="M23.36,59.31L11.84,76.78H0l17.8-25.45L1.83,28.29h12.04l10.4,14.92l9.81-14.92h11.84L29.77,51.13L47.7,76.78
		H35.53L23.36,59.31z"/>
	<path class="st0" d="M57.68,28.29h10.67v48.48H57.68V28.29z"/>
	<path class="st0" d="M94.63,37.98H77.81v-9.68h44.36v9.68h-16.75v38.8h-10.8V37.98z"/>
	<path class="st0" d="M177.1,71.15l5.36-7.72c5.17,3.47,11.19,5.17,17.4,5.17c9.49,0,11.26-1.83,11.26-5.89
		c0-3.99-4.06-4.78-11.52-5.82c-12.96-1.83-19.7-4.19-19.7-14.72c0-10.8,6.54-14.65,20.22-14.65c9.88,0,15.9,2.29,19.63,4.78
		l-5.76,8.31c-3.07-2.03-8.77-3.73-14-3.73c-7.59,0-9.42,1.5-9.42,5.03c0,3.93,3.99,4.65,11.71,5.76
		c11.65,1.7,19.43,3.6,19.43,14.52c0,9.81-5.37,15.31-21.53,15.31C190.58,77.5,182.6,75.21,177.1,71.15z"/>
	<path class="st0" d="M230.16,52.5c0-18.19,10.21-24.99,25.65-24.99c15.44,0,25.71,6.8,25.71,24.99c0,18.25-10.27,25.06-25.71,25.06
		C240.38,77.56,230.16,70.76,230.16,52.5z M270.67,52.7c0-9.49-3.73-15.38-14.85-15.38c-11.12,0-14.85,5.89-14.85,15.38
		c0,9.49,3.73,15.44,14.85,15.44C266.94,68.14,270.67,62.18,270.67,52.7z"/>
	<polygon class="st0" points="151.84,27.97 140.97,27.97 121.54,76.78 132.01,76.78 146.14,40.66 153.73,59.96 144.83,59.96 
		141.37,68.79 157.13,68.79 160.28,76.78 171.4,76.78 	"/>
</g>
<rect x="391.96" y="52.81" transform="matrix(0.7068 -0.7074 0.7074 0.7068 64.2232 300.6395)" class="st0" width="5.72" height="40.04"/>
<rect x="383.87" y="60.91" transform="matrix(0.7072 -0.707 0.707 0.7072 56.0126 297.1185)" class="st0" width="5.72" height="40.04"/>
<rect x="366.71" y="21.42" transform="matrix(0.7071 -0.7072 0.7072 0.7071 96.1183 280.5878)" class="st0" width="40.04" height="5.73"/>
<polygon class="st0" points="390.76,0 366.5,24.27 342.23,0 338.18,4.05 366.5,32.36 394.81,4.05 "/>
<rect x="374.81" y="29.51" transform="matrix(0.7074 -0.7068 0.7068 0.7074 92.6378 288.5374)" class="st0" width="40.04" height="5.72"/>
<polygon class="st0" points="394.84,52.61 419.11,28.34 415.06,24.29 386.74,52.61 415.06,80.92 419.11,76.87 "/>
<polygon class="st0" points="317.94,24.29 313.89,28.34 338.16,52.61 313.89,76.87 317.94,80.92 346.25,52.61 "/>
<polygon class="st0" points="330.09,12.15 326.04,16.19 362.45,52.61 326.04,89.02 330.09,93.07 370.55,52.61 "/>
<polygon class="st0" points="394.81,101.17 366.5,72.85 338.18,101.17 342.23,105.21 366.5,80.95 390.76,105.21 "/>
</svg>
